<svg width="24px" height="24px" viewBox="0 0 24 24" fill="white" xmlns="http://www.w3.org/2000/svg">
<path d="M8 12C7.44772 12 7 12.4477 7 13V17C7 17.5523 7.44772 18 8 18C8.55229 18 9 17.5523 9 17V13C9 12.4477 8.55229 12 8 12Z"></path><path d="M11 13C11 12.4477 11.4477 12 12 12C12.5523 12 13 12.4477 13 13V17C13 17.5523 12.5523 18 12 18C11.4477 18 11 17.5523 11 17V13Z"></path><path d="M16 12C15.4477 12 15 12.4477 15 13V17C15 17.5523 15.4477 18 16 18C16.5523 18 17 17.5523 17 17V13C17 12.4477 16.5523 12 16 12Z"></path><path fill-rule="evenodd" clip-rule="evenodd" d="M10.8322 3.55468C11.1385 3.09516 11.0143 2.47429 10.5548 2.16793C10.0953 1.86158 9.47441 1.98576 9.16806 2.44528L5.46491 8H3.18067C1.94479 8 1.00471 9.10974 1.20788 10.3288L2.87455 20.3288C3.03528 21.2932 3.86966 22 4.84734 22H19.1531C20.1308 22 20.9651 21.2932 21.1259 20.3288L22.7925 10.3288C22.9957 9.10973 22.0556 8 20.8197 8H18.5353L14.8322 2.44528C14.5258 1.98576 13.9049 1.86158 13.4454 2.16793C12.9859 2.47429 12.8617 3.09516 13.1681 3.55468L16.1316 8H7.86862L10.8322 3.55468ZM18.0145 10C18.0055 10.0001 17.9965 10.0001 17.9876 10H6.01264C6.00367 10.0001 5.99471 10.0001 5.98574 10H3.18067L4.84734 20H19.1531L20.8197 10H18.0145Z">
</path>
</svg>