<svg width="32" height="32" viewBox="0 0 32 32" fill="none" xmlns="http://www.w3.org/2000/svg">
<path d="M30.8675 23.955C30.8675 24.9192 30.0859 25.7009 29.1218 25.7009H3.07975C2.11559 25.7009 1.33398 24.9192 1.33398 23.955V7.07908C1.33398 6.11485 2.11559 5.33325 3.07975 5.33325H29.1218C30.086 5.33325 30.8675 6.11491 30.8675 7.07908V23.955Z" fill="white"/>
<path d="M30.4061 23.955C30.4061 24.6644 29.8311 25.2394 29.1218 25.2394H3.07975C2.37049 25.2394 1.79545 24.6644 1.79545 23.955V7.07908C1.79545 6.3697 2.37045 5.79471 3.07975 5.79471H29.1218C29.8311 5.79471 30.4061 6.36974 30.4061 7.07908V23.955Z" stroke="white" stroke-opacity="0.8" stroke-width="0.922924"/>
<path d="M7.88938 15.6345L7.19592 12.3079C7.07738 11.8491 6.73244 11.7126 6.30143 11.6946H3.12207L3.09375 11.8466C5.57001 12.4469 7.20849 13.8951 7.88938 15.6345Z" fill="#F79F1A"/>
<path d="M15.2552 11.7615H13.2009L11.918 19.2906H13.9688L15.2552 11.7615Z" fill="#059BBF"/>
<path d="M9.14033 19.2831L12.3711 11.7666H10.197L8.18718 16.902L7.97266 16.1266C7.57868 15.1938 6.45272 13.8513 5.13086 13.0061L6.96805 19.2856L9.14033 19.2831Z" fill="#059BBF"/>
<path d="M21.115 16.8293C21.1226 15.9745 20.5737 15.3225 19.391 14.7839C18.6722 14.4361 18.2341 14.2042 18.2394 13.8512C18.2394 13.5394 18.6104 13.2044 19.4143 13.2044C20.0869 13.1941 20.5712 13.341 20.95 13.493L21.1356 13.5781L21.414 11.947C21.0068 11.7949 20.3703 11.6326 19.5742 11.6326C17.5463 11.6326 16.1188 12.653 16.1059 14.1166C16.093 15.1989 17.1264 15.8019 17.9045 16.1626C18.7032 16.5302 18.9712 16.7655 18.9661 17.0954C18.9609 17.5997 18.3295 17.8297 17.7395 17.8297C16.9175 17.8297 16.482 17.7163 15.8066 17.4349L15.5442 17.3144L15.2559 19.0015C15.7348 19.2109 16.6211 19.3938 17.5411 19.4015C19.6977 19.4015 21.0995 18.394 21.115 16.8293Z" fill="#059BBF"/>
<path d="M23.5557 18.1622C23.7902 18.1622 25.885 18.1647 26.1841 18.1647C26.2459 18.4269 26.434 19.2933 26.434 19.2933H28.3382L26.6762 11.7693H25.0915C24.5993 11.7693 24.2335 11.9033 24.017 12.3928L20.9688 19.2933H23.1256C23.1254 19.2933 23.4758 18.3658 23.5557 18.1622ZM24.9625 14.516C24.9524 14.5366 25.1327 14.0806 25.2358 13.7971L25.3748 14.4464C25.3748 14.4464 25.7666 16.2451 25.849 16.6213H24.1457C24.3158 16.1884 24.9625 14.516 24.9625 14.516Z" fill="#059BBF"/>
<path d="M29.1218 5.33325H3.07975C2.11559 5.33325 1.33398 6.11485 1.33398 7.07908V8.89101H30.8675V7.07908C30.8675 6.11485 30.086 5.33325 29.1218 5.33325Z" fill="#059BBF"/>
<path d="M29.1218 25.7011H3.07975C2.11559 25.7011 1.33398 24.9194 1.33398 23.9552V22.1433H30.8675V23.9552C30.8675 24.9194 30.086 25.7011 29.1218 25.7011Z" fill="#F79F1A"/>
<path opacity="0.15" d="M2.57514 23.955V7.07908C2.57514 6.11485 3.3568 5.33325 4.32103 5.33325H3.07969C2.11559 5.33325 1.33398 6.11485 1.33398 7.07908V23.955C1.33398 24.9193 2.11559 25.7009 3.07975 25.7009H4.32108C3.35686 25.7009 2.57514 24.9192 2.57514 23.955Z" fill="#FAFAFA"/>
</svg>